<?xml version="1.0" encoding="utf-8"?>
<!-- Generator: Adobe Illustrator 22.1.0, SVG Export Plug-In . SVG Version: 6.00 Build 0)  -->
<svg version="1.1" id="Capa_1" xmlns="http://www.w3.org/2000/svg" xmlns:xlink="http://www.w3.org/1999/xlink" x="0px" y="0px"
	 viewBox="0 0 29 29" style="enable-background:new 0 0 29 29;" xml:space="preserve">
<style type="text/css">
	.st0{fill:#FFFFFF;}
</style>
<g>
	<path class="st0" d="M25.5,6.7c0-0.1-0.1-0.1-0.1-0.2c-1.2-1.7-2.8-3.1-4.7-4.1c-1.9-1-4.1-1.5-6.2-1.5c-2,0-3.9,0.4-5.7,1.2
		c-0.4,0.2-0.6,0.6-0.4,1c0.1,0.3,0.4,0.5,0.7,0.5c0.1,0,0.2,0,0.3-0.1c0.6-0.3,1.3-0.5,1.9-0.7c-0.4,0.6-0.8,1.4-1.2,2.3
		C10.1,5.6,10,5.9,9.9,6.3H5.8c0.5-0.5,1-1,1.6-1.4c0.3-0.3,0.4-0.7,0.2-1.1C7.4,3.6,7.2,3.5,7,3.5c-0.2,0-0.3,0.1-0.5,0.2
		c-1.1,0.8-2.1,1.8-3,3c0,0,0,0.1-0.1,0.1c-0.4,0.5-0.7,1.1-1,1.6c-1,1.9-1.5,4-1.5,6.2c0,2.8,0.9,5.5,2.5,7.8
		c0,0.1,0.1,0.1,0.1,0.2c1.2,1.7,2.9,3.1,4.7,4.1c1.9,1,4.1,1.5,6.2,1.5c1.8,0,3.5-0.3,5.2-1c0.2-0.1,0.3-0.2,0.4-0.4
		c0.1-0.2,0.1-0.4,0-0.6c-0.1-0.3-0.4-0.5-0.7-0.5c-0.1,0-0.2,0-0.3,0.1c-0.5,0.2-1,0.4-1.5,0.5c0.4-0.6,0.8-1.4,1.2-2.3
		c0.1-0.3,0.3-0.7,0.4-1.1h4.1c-0.6,0.7-1.3,1.2-2,1.7c-0.2,0.1-0.3,0.3-0.3,0.5c0,0.2,0,0.4,0.1,0.6c0.1,0.2,0.4,0.3,0.7,0.3
		c0.2,0,0.3,0,0.4-0.1c1.3-0.9,2.5-2,3.5-3.4l0,0c0,0,0,0,0,0c1.6-2.3,2.5-5,2.5-7.8C28,11.7,27.1,9,25.5,6.7z M7.9,22.7
		c0.4,0,0.8-0.4,0.8-0.8c0-0.4-0.4-0.8-0.8-0.8H4.6c-1.2-1.7-1.8-3.7-2-5.8h6.2c0.1,3.2,0.6,6.2,1.5,8.5c0.3,0.9,0.7,1.6,1.2,2.3
		c-1.1-0.3-2.1-0.7-3-1.3c-1-0.6-1.8-1.3-2.6-2.1H7.9z M11.1,21.1c-0.4-1.7-0.7-3.7-0.7-5.8h8.3c0,2.1-0.3,4.1-0.7,5.8H11.1z
		 M17.5,22.7c-0.8,2.3-1.9,3.8-3,3.8c-0.5,0-0.9-0.3-1.4-0.8c-0.5-0.6-1-1.4-1.3-2.4c-0.1-0.2-0.1-0.3-0.2-0.5H17.5z M2.6,13.7
		c0.1-1.6,0.5-3.2,1.3-4.7c0.2-0.4,0.4-0.8,0.7-1.1h4.9c-0.4,1.8-0.6,3.8-0.7,5.8H2.6z M11.5,6.3c0.8-2.3,1.9-3.8,3-3.8
		c0.5,0,0.9,0.3,1.4,0.8c0.5,0.6,1,1.4,1.4,2.4c0.1,0.2,0.1,0.3,0.2,0.5H11.5z M17.9,7.9c0.4,1.7,0.7,3.7,0.7,5.8h-8.3
		c0-2.1,0.3-4.1,0.7-5.8H17.9z M21,6.3c-0.4,0-0.8,0.4-0.8,0.8c0,0.4,0.4,0.8,0.8,0.8h3.4c1.2,1.7,1.8,3.7,2,5.8h-6.2
		c-0.1-3.2-0.6-6.2-1.5-8.5C18.4,4.3,18,3.6,17.6,3c1.1,0.3,2.1,0.7,3,1.3c1,0.6,1.8,1.3,2.6,2.1H21z M26.4,15.3
		c-0.1,2.1-0.8,4.1-2,5.8h-4.9c0.4-1.8,0.6-3.8,0.7-5.8H26.4z"/>
</g>
</svg>
