<?xml version="1.0" encoding="utf-8"?>
<!-- Generator: Adobe Illustrator 22.1.0, SVG Export Plug-In . SVG Version: 6.00 Build 0)  -->
<svg version="1.1" id="Capa_1" xmlns="http://www.w3.org/2000/svg" xmlns:xlink="http://www.w3.org/1999/xlink" x="0px" y="0px"
	 viewBox="0 0 335 26" style="enable-background:new 0 0 335 26;" xml:space="preserve">
<style type="text/css">
	.st0{fill:#020202;}
	.st1{fill:#030303;}
	.st2{fill:#050505;}
	.st3{fill:#060606;}
	.st4{fill:#151515;}
	.st5{fill:#020001;}
</style>
<g>
	<path class="st0" d="M60.3,16.6c-1.3,1.8-2.2,3.4-3.3,4.8c-0.8,1.1-2,2.1-3.5,1.3c-1.8-1-0.6-2.4-0.2-3.5c1.6-4.6,3.3-9.2,4.9-13.8
		c0.3-0.9,0-2.2,1.3-2.4c1.4-0.3,2.3,0.6,2.8,1.7c0.9,1.6,1.6,3.4,2.3,5.1c0.2-0.1,0.5-0.2,0.7-0.4c1.4-1.9,1.4-5.8,4.4-5.6
		c3,0.2,2.3,4,3.3,6.1c1.2,2.4,1.9,5,2.8,7.5c0.6,1.6,2.3,3.7,0.1,4.8c-2,1-3.1-1.5-4.2-2.9c-0.7-0.9-1.3-1.9-2-2.9
		c-2.5,1.6-2.2,5.7-5.2,6C61.3,22.6,62.2,18.3,60.3,16.6z"/>
	<path class="st0" d="M232.8,21c1.8-5.6,3.6-11.1,5.4-16.7c0.7-2.2,2.3-1.8,3.4-0.4c1.3,1.7,2.1,3.8,3.1,5.7
		c0.1-0.1,0.4-0.3,0.6-0.5c1.4-1.9,1.5-5.8,4.4-5.4C252.4,4,252,7.8,253,10c1.3,2.9,2.4,5.9,3.4,8.9c0.4,1.1,1,2.5-0.2,3.3
		c-1.4,0.9-2.5-0.3-3.4-1.3c-1.1-1.4-2.1-2.9-3.2-4.4c-2.6,1.6-2.2,6.3-5.7,5.9c-2.4-0.3-2.4-3.5-3.2-5.6c-3.3,1.3-2.4,7.5-7.7,5.5
		C232.3,21.9,232.2,21.5,232.8,21z"/>
	<path class="st0" d="M313.8,10.7c0.2,2.2-1.6,5.9,1.2,6.3c3.2,0.5,2.7-3.5,3.4-5.8c0.5-1.6,0.5-3.4,0.9-5c0.4-1.4,0.4-3.3,2.5-3.3
		c1.7,0,2.2,1.6,2.5,2.8c1.7,8.3,0.1,18.4-10.8,17.7c-3.2-0.2-5.1-1.6-5.8-4.6c-1.2-4.8,0.1-9.4,1.1-14c0.2-1,1-1.8,2.2-1.9
		c1.4-0.1,2.3,1,2.5,2.1C313.8,7,313.7,8.9,313.8,10.7z"/>
	<path class="st1" d="M155,9.7c0.6-2.9-0.1-7.5,3-7.2c4.1,0.4,2.3,4.7,2,7.6c-0.3,2.7-0.7,5.3-1.2,8c-0.3,1.4-0.1,3.6-1.7,4
		c-1.9,0.4-2.6-1.8-3.6-3c-0.7-0.7-1.1-1.6-1.8-2.6c-2,2.6-0.7,8.5-5.2,7.3c-2.7-0.7-0.8-5.7-0.6-8.8c0.2-3.2-0.2-6.4,0.9-9.6
		c0.4-1.2,0.3-2.9,2.1-3c1.6-0.1,2.2,1.3,2.9,2.4C152.8,6.3,152.9,8.4,155,9.7z"/>
	<path class="st2" d="M120,11.6c-0.6,1.3-1.7,2.7-1.4,4.2c0.4,2,0.8,4.4,3.7,2.2c2-1.5,3.8-1.6,5,0.8c1.3,2.7-0.8,3.4-2.9,4.1
		c-5.4,1.8-10.6-0.3-12-5c-1.5-5.1,2.4-12.5,7.1-13.5c2.5-0.5,4.4,0.3,5.2,2.8c0.8,2.7,0,5.3-2.1,6.8C120.6,15.4,121.3,12,120,11.6z
		"/>
	<path class="st3" d="M291.3,19c0.2-2.4,0.3-4.7,0.5-7.1c0.1-1.8,0.2-3.4-2.2-3.9c-1.1-0.2-1.9-0.8-1.8-2.1c0.1-1.5,1.3-1.7,2.5-1.9
		c4.7-0.8,9.3-3,14,0c0.7,0.4,2.1-0.2,2.2,1.4c0,1.2-0.6,1.8-1.7,2.2C304.6,7.7,304.3,8,304,8c-7.9,0.1-8.3,5.3-8,11.2
		c0.1,2,0.7,5.2-2.5,5.1C290.7,24.1,291.2,21.1,291.3,19z"/>
	<path class="st2" d="M165.4,13.2c0.1-2.4,0.6-4.9-2.9-5.4c-0.9-0.1-1.4-0.9-1.3-1.9c0.2-1.2,1.1-1.6,2.2-1.7
		C168.2,3.5,173,1,177.9,4c0.7,0.4,2.1-0.1,2.1,1.4c0,1.1-0.7,1.8-1.7,2.3c-0.2,0.1-0.3,0.2-0.5,0.2c-9.4-0.1-8.3,6.6-8.3,12.6
		c0,1.8-0.1,3.9-2.2,3.9c-2.3,0-2.8-2.2-2.7-4.1C164.8,17.9,165.2,15.6,165.4,13.2z"/>
	<path class="st1" d="M44,22.9c-1.7-0.2-3.7,0-5.4-0.6c-1.5-0.6-3.3-1.3-1.3-3.9c2.5-3.5,1.9-8,2.5-12.1C40,4,40.4,1.8,43.1,2.3
		c2.6,0.5,1.7,2.8,1.4,4.5c-0.3,1.5-0.3,3-0.7,4.5c-1.2,4.5-0.7,7.6,5.1,7c0.9-0.1,2.2,0,2.1,1.5c-0.1,1.2-0.6,2.5-1.9,2.7
		C47.5,22.9,45.8,22.8,44,22.9z"/>
	<path class="st2" d="M326.8,14.2c-0.1-4,1.6-6.8,2.1-10c0.3-1.6,0.2-3.7,2.8-3.1c2.3,0.6,2.6,2.4,2,4.4c-0.8,2.9-1.7,5.8-2.5,8.7
		c-0.5,1.6-0.8,4-2.6,3.8C326.4,17.8,326.9,15.3,326.8,14.2z"/>
	<path class="st4" d="M330.1,23c-0.1,1.5-0.9,2.2-2.3,2c-1.3-0.1-2.2-0.8-2.1-2.3c0.1-1.3,1.1-1.6,2.1-1.7
		C329.4,20.7,330,21.6,330.1,23z"/>
	<path class="st1" d="M138,3.8c-1.6-0.7-3.8-0.7-4.2,0.4c-1.4,3.8-6.3,5.9-5.4,10.4c0.1,5.9,3.3,8.9,8.2,7.9c4.5-0.9,7-4,7.3-8.5
		C144.2,9.3,142.5,5.7,138,3.8z M134.7,17.6c-1.7,0.3-1.9-1.5-1.9-2.8c0.1-2.5,0.8-4.8,3.5-5.4c2.1-0.4,1.6,1.5,1.8,2.9
		C138,14.6,137.4,17,134.7,17.6z"/>
	<path class="st1" d="M15.5,7.7C14.6,4.1,11.5,3.6,8.4,3C6.2,3.7,2,4,2.5,5.8c1.4,5-1.4,9.2-1.4,13.8c0,1.3-0.5,3.2,1.1,3.5
		c1.5,0.2,2.8-1,3.1-2.7c0.6-3.5,2.6-5.2,6-6.2C14.2,13.4,16.4,11.2,15.5,7.7z M9.4,11c-1.6-0.1-1.3-1.2-1.4-2.2
		C8,7.6,8.4,6.7,9.8,7.2C10.7,7.5,12,7.9,12,9C12,10.5,10.4,10.5,9.4,11z"/>
	<path class="st5" d="M35.2,20.7c-1.4-4.1-2.3-8.4-3.5-12.5c-0.5-1.6-1.5-2.9-2.6-4c-1.8-1.8-3.2-1.7-4.6,0.5
		c-1.4,2.3-2.6,4.7-3.9,7.1c-0.6,1.2-1.2,2.4-2.8,2.4c-1.6,0-1.6,0.9-0.8,2.2c0.8,1.2,1.3,2.4,0.8,4c-0.5,1.9,1.4,2.2,2.5,2.9
		c1.2,0.8,2,0,2.6-1c2.1-3.2,4.9-3.2,7.2-0.1c0.4,0.5,0.9,1,1.5,1.4c0.7,0.5,1.6,1.2,2.4,0.8c1-0.5,0.7-2,1.2-2.7
		C35.3,21.2,35.3,20.9,35.2,20.7z M26.7,14.4c-0.6,0-0.8-0.4-0.7-1c0.1-0.5,0.3-1.1,0.8-1c0.5,0,0.6,0.6,0.7,1.2
		C27.6,14.2,27.3,14.4,26.7,14.4z"/>
	<path class="st2" d="M271.2,13.6c-1.6-1.9-1-2.9-0.1-4.7c1.5-3-0.7-5.1-3.2-5.7c-2.3-0.6-6-2.8-7,1.9c-1,4.8-2.5,9.5-2.6,12.8
		c-0.2,6.4,0.5,6.9,5,5.5c2.8-0.9,5.2-2.4,7.1-4.7C271.7,17.2,272.5,15.1,271.2,13.6z M264.5,17.2c-0.6,0.1-0.9-0.2-0.9-0.8
		c0-0.6,0.4-0.8,1-0.7c0.5,0.1,1.1,0.2,1.1,0.7C265.6,17,265,17.1,264.5,17.2z M265.4,8.6c-0.6,0.1-0.9-0.2-0.9-0.8
		c0-0.6,0.4-0.8,1-0.7c0.5,0.1,1.1,0.2,1.1,0.7C266.5,8.4,265.9,8.5,265.4,8.6z"/>
	<path class="st5" d="M96.3,20.7c-1.4-4.1-2.3-8.4-3.5-12.5c-0.5-1.6-1.5-2.9-2.6-4c-1.8-1.8-3.2-1.7-4.6,0.5
		C84.2,7,83,9.4,81.7,11.7c-0.6,1.2-1.2,2.4-2.8,2.4c-1.6,0-1.6,0.9-0.8,2.2c0.8,1.2,1.3,2.4,0.8,4c-0.5,1.9,1.4,2.2,2.5,2.9
		c1.2,0.8,2,0,2.6-1c2.1-3.2,4.9-3.2,7.2-0.1c0.4,0.5,0.9,1,1.5,1.4c0.7,0.5,1.6,1.2,2.4,0.8c1-0.5,0.7-2,1.2-2.7
		C96.4,21.2,96.4,20.9,96.3,20.7z M87.8,14.4c-0.6,0-0.8-0.4-0.7-1c0.1-0.5,0.3-1.1,0.8-1c0.5,0,0.6,0.6,0.7,1.2
		C88.7,14.2,88.4,14.4,87.8,14.4z"/>
	<path class="st5" d="M195.4,20.7c-1.4-4.1-2.3-8.4-3.5-12.5c-0.5-1.6-1.5-2.9-2.6-4c-1.8-1.8-3.2-1.7-4.6,0.5
		c-1.4,2.3-2.6,4.7-3.9,7.1c-0.6,1.2-1.2,2.4-2.8,2.4c-1.6,0-1.6,0.9-0.8,2.2c0.8,1.2,1.3,2.4,0.8,4c-0.5,1.9,1.4,2.2,2.5,2.9
		c1.2,0.8,2,0,2.6-1c2.1-3.2,4.9-3.2,7.2-0.1c0.4,0.5,0.9,1,1.5,1.4c0.7,0.5,1.6,1.2,2.4,0.8c1-0.5,0.7-2,1.2-2.7
		C195.5,21.2,195.5,20.9,195.4,20.7z M186.9,14.4c-0.6,0-0.8-0.4-0.7-1c0.1-0.5,0.3-1.1,0.8-1c0.5,0,0.6,0.6,0.7,1.2
		C187.8,14.2,187.5,14.4,186.9,14.4z"/>
	<path class="st5" d="M232.4,20.7c-1.4-4.1-2.3-8.4-3.5-12.5c-0.5-1.6-1.5-2.9-2.6-4c-1.8-1.8-3.2-1.7-4.6,0.5
		c-1.4,2.3-2.6,4.7-3.9,7.1c-0.6,1.2-1.2,2.4-2.8,2.4c-1.6,0-1.6,0.9-0.8,2.2c0.8,1.2,1.3,2.4,0.8,4c-0.5,1.9,1.4,2.2,2.5,2.9
		c1.2,0.8,2,0,2.6-1c2.1-3.2,4.9-3.2,7.2-0.1c0.4,0.5,0.9,1,1.5,1.4c0.7,0.5,1.6,1.2,2.4,0.8c1-0.5,0.7-2,1.2-2.7
		C232.5,21.2,232.5,20.9,232.4,20.7z M223.9,14.4c-0.6,0-0.8-0.4-0.7-1c0.1-0.5,0.3-1.1,0.8-1c0.5,0,0.6,0.6,0.7,1.2
		C224.8,14.2,224.5,14.4,223.9,14.4z"/>
</g>
</svg>
