<?xml version="1.0" encoding="utf-8"?>
<!-- Generator: Adobe Illustrator 22.1.0, SVG Export Plug-In . SVG Version: 6.00 Build 0)  -->
<svg version="1.1" id="Capa_1" xmlns="http://www.w3.org/2000/svg" xmlns:xlink="http://www.w3.org/1999/xlink" x="0px" y="0px"
	 viewBox="0 0 93 93" style="enable-background:new 0 0 93 93;" xml:space="preserve">
<g>
	<path d="M36.9,81.3c-0.5,0-0.9,0.2-1.3,0.5s-0.5,0.8-0.5,1.3s0.2,0.9,0.5,1.3s0.8,0.5,1.3,0.5s0.9-0.2,1.3-0.5s0.5-0.8,0.5-1.3
		s-0.2-0.9-0.5-1.3S37.4,81.3,36.9,81.3z"/>
	<path d="M90.1,25.2c-2.5-2.5-6.6-2.5-9.2,0l-8.1,8.1V7c0-3.3-2.7-6-6-6H7C3.7,1,1,3.7,1,7V86c0,3.3,2.7,6,6,6h59.7c3.3,0,6-2.7,6-6
		V51.7l17.3-17.3C92.6,31.9,92.6,27.8,90.1,25.2z M69.3,7v29.9l-3.6,3.6V9.9c0-1-0.8-1.8-1.8-1.8H52V4.6h14.7
		C68.1,4.6,69.3,5.7,69.3,7z M59.5,55.8l2.4-5.4l3,3L59.5,55.8z M48.5,4.6v7.2c0,1.1-0.9,2-2,2H27.3c-1.1,0-2-0.9-2-2V4.6H48.5z
		 M66.8,88.4H7c-1.4,0-2.5-1.1-2.5-2.5V7c0-1.4,1.1-2.5,2.5-2.5h14.7v3.6H9.9c-1,0-1.8,0.8-1.8,1.8v73.2c0,1,0.8,1.8,1.8,1.8h19.9
		c1,0,1.8-0.8,1.8-1.8s-0.8-1.8-1.8-1.8H11.7V11.7h10.1v0.1c0,3.1,2.5,5.6,5.6,5.6h19.2c3.1,0,5.6-2.5,5.6-5.6v-0.1h10.1V44l-2,2
		c-0.2,0.2-0.3,0.3-0.4,0.5l-5.3,12c-0.3,0.7-0.2,1.5,0.4,2c0.3,0.3,0.8,0.5,1.3,0.5c0.2,0,0.5,0,0.7-0.2l5.4-2.4v22.8H44
		c-1,0-1.8,0.8-1.8,1.8s0.8,1.8,1.8,1.8h19.9c1,0,1.8-0.8,1.8-1.8V56.9l3-1.4c0.2-0.1,0.4-0.2,0.5-0.3V86
		C69.3,87.3,68.1,88.4,66.8,88.4z M81,38.5L68,51.4l-4.1-4.1l16-16l4.1,4.1L81,38.5z M87.6,31.9l-1,1l-4.1-4.1l1-1
		c1.1-1.1,3-1.1,4.1,0C88.7,28.9,88.7,30.7,87.6,31.9z"/>
	<path d="M29.8,22.3H18.4c-1,0-1.8,0.8-1.8,1.8v11.4c0,1,0.8,1.8,1.8,1.8h11.4c1,0,1.8-0.8,1.8-1.8V24.1
		C31.6,23.1,30.8,22.3,29.8,22.3z M28,33.7h-7.8v-7.8H28V33.7z"/>
	<path d="M29.8,41.9H18.4c-1,0-1.8,0.8-1.8,1.8V55c0,1,0.8,1.8,1.8,1.8h11.4c1,0,1.8-0.8,1.8-1.8V43.7
		C31.6,42.7,30.8,41.9,29.8,41.9z M28,53.3h-7.8v-7.8H28V53.3z"/>
	<path d="M29.8,61.4H18.4c-1,0-1.8,0.8-1.8,1.8v11.4c0,1,0.8,1.8,1.8,1.8h11.4c1,0,1.8-0.8,1.8-1.8V63.2
		C31.6,62.2,30.8,61.4,29.8,61.4z M28,72.8h-7.8V65H28V72.8z"/>
	<path d="M42.5,35.1c0.3,0.3,0.8,0.5,1.3,0.5s0.9-0.2,1.3-0.5l8-8c0.7-0.7,0.7-1.8,0-2.5c-0.7-0.7-1.8-0.7-2.5,0l-6.8,6.8l-2.7-2.7
		c-0.7-0.7-1.8-0.7-2.5,0c-0.7,0.7-0.7,1.8,0,2.5L42.5,35.1z"/>
	<path d="M42.5,54.6c0.3,0.3,0.8,0.5,1.3,0.5s0.9-0.2,1.3-0.5l8-8c0.7-0.7,0.7-1.8,0-2.5c-0.7-0.7-1.8-0.7-2.5,0l-6.8,6.8l-2.7-2.7
		c-0.7-0.7-1.8-0.7-2.5,0c-0.7,0.7-0.7,1.8,0,2.5L42.5,54.6z"/>
	<path d="M45.8,71.4l2.8,2.8c0.3,0.3,0.8,0.5,1.3,0.5s0.9-0.2,1.3-0.5c0.7-0.7,0.7-1.8,0-2.5l-2.8-2.8l2.8-2.8
		c0.7-0.7,0.7-1.8,0-2.5c-0.7-0.7-1.8-0.7-2.5,0l-2.8,2.8l-2.8-2.8c-0.7-0.7-1.8-0.7-2.5,0c-0.7,0.7-0.7,1.8,0,2.5l2.8,2.8l-2.8,2.8
		c-0.7,0.7-0.7,1.8,0,2.5c0.3,0.3,0.8,0.5,1.3,0.5s0.9-0.2,1.3-0.5L45.8,71.4z"/>
</g>
</svg>
