<?xml version="1.0" encoding="utf-8"?>
<!-- Generator: Adobe Illustrator 22.1.0, SVG Export Plug-In . SVG Version: 6.00 Build 0)  -->
<svg version="1.1" id="Capa_1" xmlns="http://www.w3.org/2000/svg" xmlns:xlink="http://www.w3.org/1999/xlink" x="0px" y="0px"
	 viewBox="0 0 270 40" style="enable-background:new 0 0 270 40;" xml:space="preserve">
<style type="text/css">
	.st0{fill:#FFFFFF;}
</style>
<g>
	<path class="st0" d="M10.8,23.4l-1.7-5c-0.4-1.1-0.6-2.1-0.9-3.1H8.2c-0.3,1-0.5,2.1-0.9,3.1l-1.7,5H10.8z M5.1,25.1l-1.8,5.4H1
		l5.9-17.2h2.7l5.9,17.2h-2.4l-1.9-5.4H5.1z"/>
	<path class="st0" d="M20,14.7c0,0.7-0.5,1.4-1.4,1.4c-0.9,0-1.4-0.6-1.4-1.4c0-0.8,0.6-1.4,1.4-1.4C19.5,13.3,20,13.9,20,14.7
		 M14.2,34.2c1-0.1,1.9-0.4,2.5-0.9c0.6-0.7,0.8-1.7,0.8-4.7V18.1h2.3v11.3c0,2.4-0.4,4-1.5,5.1c-1,1-2.7,1.4-3.9,1.4L14.2,34.2z"/>
	<path class="st0" d="M33.3,27.1c0,1.3,0,2.4,0.1,3.4h-2l-0.1-2h-0.1c-0.6,1-1.9,2.3-4.1,2.3c-2,0-4.3-1.1-4.3-5.4v-7.2H25V25
		c0,2.4,0.7,3.9,2.8,3.9c1.5,0,2.6-1,3-2c0.1-0.3,0.2-0.7,0.2-1.2v-7.6h2.3V27.1z"/>
	<path class="st0" d="M36.4,21.5c0-1.3,0-2.3-0.1-3.4h2l0.1,2h0.1c0.6-1.2,2.1-2.3,4.1-2.3c1.7,0,4.4,1,4.4,5.3v7.4h-2.3v-7.1
		c0-2-0.7-3.7-2.9-3.7c-1.5,0-2.7,1-3,2.3c-0.1,0.3-0.2,0.7-0.2,1v7.4h-2.3V21.5z"/>
	<path class="st0" d="M52.7,15.2v3h3.2v1.7h-3.2v6.7c0,1.5,0.4,2.4,1.7,2.4c0.6,0,1,0,1.3-0.2l0.1,1.7c-0.4,0.2-1.1,0.3-2,0.3
		c-1.1,0-1.9-0.4-2.4-1c-0.6-0.7-0.9-1.8-0.9-3.2v-6.8h-1.9v-1.7h1.9v-2.3L52.7,15.2z"/>
	<path class="st0" d="M64.4,24.2c-2.5-0.1-5.3,0.4-5.3,2.8c0,1.5,1,2.2,2.1,2.2c1.6,0,2.7-1,3-2.1c0.1-0.2,0.1-0.5,0.1-0.7V24.2z
		 M66.6,27.6c0,1.1,0.1,2.1,0.2,3h-2.1L64.5,29h-0.1c-0.7,1-2,1.8-3.8,1.8c-2.5,0-3.8-1.8-3.8-3.6c0-3,2.7-4.6,7.5-4.6v-0.3
		c0-1-0.3-2.9-2.8-2.9c-1.2,0-2.4,0.4-3.2,0.9L57.7,19c1-0.7,2.5-1.1,4.1-1.1c3.8,0,4.7,2.6,4.7,5.1V27.6z"/>
	<path class="st0" d="M69.6,21.5c0-1.3,0-2.3-0.1-3.4h2l0.1,2h0.1c0.7-1.2,1.9-2.3,3.9-2.3c1.7,0,3,1,3.5,2.5h0.1
		c0.4-0.7,0.9-1.2,1.4-1.6c0.7-0.6,1.6-0.9,2.8-0.9c1.6,0,4.1,1.1,4.1,5.4v7.3h-2.2v-7c0-2.4-0.9-3.8-2.7-3.8c-1.3,0-2.3,0.9-2.7,2
		c-0.1,0.3-0.2,0.7-0.2,1.1v7.6h-2.2v-7.4c0-2-0.9-3.4-2.6-3.4c-1.4,0-2.4,1.1-2.8,2.3c-0.1,0.3-0.2,0.7-0.2,1.1v7.5h-2.2V21.5z"/>
	<path class="st0" d="M98.3,23.1c0-1.4-0.6-3.7-3.1-3.7c-2.3,0-3.3,2.1-3.5,3.7H98.3z M91.7,24.7c0.1,3,2,4.3,4.3,4.3
		c1.6,0,2.6-0.3,3.4-0.6l0.4,1.6c-0.8,0.4-2.2,0.8-4.1,0.8c-3.8,0-6.1-2.5-6.1-6.3s2.2-6.7,5.8-6.7c4.1,0,5.1,3.6,5.1,5.8
		c0,0.5-0.1,0.8-0.1,1H91.7z"/>
	<path class="st0" d="M102.7,21.5c0-1.3,0-2.3-0.1-3.4h2l0.1,2h0.1c0.6-1.2,2.1-2.3,4.1-2.3c1.7,0,4.4,1,4.4,5.3v7.4H111v-7.1
		c0-2-0.7-3.7-2.9-3.7c-1.5,0-2.7,1-3,2.3c-0.1,0.3-0.2,0.7-0.2,1v7.4h-2.3V21.5z"/>
	<path class="st0" d="M118.9,15.2v3h3.2v1.7h-3.2v6.7c0,1.5,0.4,2.4,1.7,2.4c0.6,0,1,0,1.3-0.2l0.1,1.7c-0.4,0.2-1.1,0.3-2,0.3
		c-1.1,0-1.9-0.4-2.4-1c-0.6-0.7-0.9-1.8-0.9-3.2v-6.8h-1.9v-1.7h1.9v-2.3L118.9,15.2z"/>
	<path class="st0" d="M175.2,23.3c0-0.2,0-0.5-0.1-0.7c-0.2-1-1.1-1.9-2.3-1.9c-1.8,0-2.7,1.6-2.7,3.6c0,2.1,1.1,3.5,2.7,3.5
		c1.1,0,2-0.8,2.3-1.9c0.1-0.3,0.1-0.6,0.1-0.9V23.3z M179.1,12.4v14.4c0,1.4,0.1,2.9,0.1,3.7h-3.5l-0.2-1.8h-0.1
		c-0.8,1.4-2.3,2.1-3.9,2.1c-3,0-5.4-2.5-5.4-6.4c0-4.2,2.6-6.7,5.6-6.7c1.5,0,2.8,0.5,3.3,1.4h0.1v-6.8H179.1z"/>
	<path class="st0" d="M189.8,22.9c0-0.9-0.4-2.5-2.2-2.5c-1.6,0-2.3,1.5-2.4,2.5H189.8z M185.2,25.5c0.1,1.6,1.7,2.4,3.6,2.4
		c1.3,0,2.4-0.2,3.5-0.5l0.5,2.6c-1.3,0.5-2.9,0.8-4.6,0.8c-4.3,0-6.7-2.5-6.7-6.4c0-3.2,2-6.7,6.4-6.7c4.1,0,5.6,3.1,5.6,6.2
		c0,0.7-0.1,1.3-0.1,1.5H185.2z"/>
	<path class="st0" d="M205,21.3c0.3,0.1,0.7,0.1,1.3,0.1c2.1,0,3.4-1,3.4-2.8c0-1.6-1.1-2.5-3.1-2.5c-0.8,0-1.3,0.1-1.6,0.2V21.3z
		 M201.1,13.5c1.2-0.2,2.9-0.4,5.3-0.4c2.4,0,4.1,0.5,5.3,1.4c1.1,0.9,1.9,2.3,1.9,4c0,1.7-0.6,3.1-1.6,4.1
		c-1.3,1.3-3.3,1.8-5.6,1.8c-0.5,0-1,0-1.3-0.1v6.2h-3.9V13.5z"/>
	<path class="st0" d="M222.2,24.6c-2.1,0-3.7,0.5-3.7,2c0,1,0.7,1.5,1.5,1.5c1,0,1.8-0.6,2-1.4c0.1-0.2,0.1-0.4,0.1-0.7V24.6z
		 M226,27.5c0,1.2,0.1,2.4,0.2,3h-3.5l-0.2-1.3h-0.1c-0.8,1-2.1,1.5-3.6,1.5c-2.5,0-4.1-1.8-4.1-3.8c0-3.2,2.9-4.8,7.4-4.8V22
		c0-0.7-0.4-1.6-2.3-1.6c-1.3,0-2.7,0.4-3.5,0.9l-0.7-2.5c0.9-0.5,2.6-1.1,4.9-1.1c4.2,0,5.5,2.5,5.5,5.4V27.5z"/>
	<rect x="229.1" y="12.4" class="st0" width="3.9" height="18.2"/>
	<path class="st0" d="M236.2,22c0-1.6-0.1-2.9-0.1-4h3.3l0.2,1.7h0.1c0.5-0.8,1.6-2,3.8-2c1.6,0,2.9,0.8,3.5,2.1h0.1
		c0.5-0.7,1-1.2,1.6-1.5c0.7-0.4,1.5-0.6,2.4-0.6c2.4,0,4.2,1.7,4.2,5.4v7.4h-3.8v-6.8c0-1.8-0.6-2.9-1.9-2.9
		c-0.9,0-1.5,0.6-1.8,1.4c-0.1,0.3-0.2,0.7-0.2,1v7.3h-3.8v-7c0-1.6-0.6-2.7-1.8-2.7c-1,0-1.6,0.8-1.8,1.4c-0.1,0.3-0.2,0.7-0.2,1
		v7.3h-3.8V22z"/>
	<path class="st0" d="M265,24.6c-2.1,0-3.7,0.5-3.7,2c0,1,0.7,1.5,1.5,1.5c1,0,1.8-0.6,2-1.4c0.1-0.2,0.1-0.4,0.1-0.7V24.6z
		 M268.8,27.5c0,1.2,0.1,2.4,0.2,3h-3.5l-0.2-1.3h-0.1c-0.8,1-2.1,1.5-3.6,1.5c-2.5,0-4.1-1.8-4.1-3.8c0-3.2,2.9-4.8,7.4-4.8V22
		c0-0.7-0.4-1.6-2.3-1.6c-1.3,0-2.7,0.4-3.5,0.9l-0.7-2.5c0.9-0.5,2.6-1.1,4.9-1.1c4.2,0,5.5,2.5,5.5,5.4V27.5z"/>
	<path class="st0" d="M142,2.3c0,0,0.1,0.1,0.1,0.3c0,0.3-0.2,0.4-0.2,0.5c0,0.1-0.1,0.2,0,0.4c0.1,0.2,0.3,0.3,0.6,0.3
		c0.4,0,0.7-0.3,0.7-0.7c0-0.2-0.1-0.5-0.3-0.7c-0.4-0.5-0.7-1.1-0.2-1.4c0.4-0.2,0.8,0.1,1.2,0.4c0.1,0,0.1,0,0.2,0
		c0.1,0,0.1,0,0.2,0c0.3-0.3,0.8-0.7,1.2-0.4c0.5,0.3,0.2,0.9-0.2,1.4c-0.2,0.2-0.3,0.4-0.3,0.7c0,0.4,0.3,0.7,0.7,0.7
		c0.3,0,0.5-0.1,0.6-0.3c0.1-0.2,0-0.3,0-0.4c0-0.1-0.2-0.2-0.2-0.5c0-0.2,0.1-0.3,0.1-0.3c0.4-0.4,1.4-0.3,2.8,0.9
		c1.7,1.4,2.1,3.2,2.1,3.2c-0.3-0.5-0.8-0.8-1.4-1c-0.8-0.2-1.3,0.1-1.9,0.5c-0.3-0.3-1-0.6-1.4-0.6c-0.7,0-1.3,0.3-1.7,0.8l0.4,0.5
		c0.2,0.3,0,0.4,0,0.4l-0.2,0.2c0,0-0.1,0,0,0.1c0,0.1,0.1,0,0.1,0c0,0,0.3-0.2,0.4-0.2c0.2,0,0.5,0.2,0.6,0.5
		c0.2,0.4-0.3,0.8-0.4,1c-0.1,0.1-0.4,0.4-0.6,0.2c-0.3-0.2-0.4,0.1-0.4,0.1c0,0.7,0.6,1,1.1,0.9c0.3-0.1,0.6-0.3,0.7-0.5l0.1,0
		c0.1,0.5,0.6,0.8,1.1,0.7c0.4-0.1,0.7-0.3,0.8-0.7c0,0-0.1-0.3-0.4-0.1c-0.3,0.2-0.5-0.1-0.6-0.3c-0.1-0.1-0.4-0.7-0.2-1
		c0.2-0.2,0.5-0.4,0.7-0.4c0.1,0,0.4,0.3,0.4,0.3c0,0,0.1,0.1,0.1,0c0,0,0-0.1,0-0.1L148,7.2c0,0-0.2-0.2,0.1-0.4l0.6-0.5
		c0,0,0.2-0.1,0.4-0.1c0.2,0,0.3,0.2,0.3,0.2l0.4,0.7c0.2,0.3-0.1,0.4-0.1,0.4l-0.3,0.2c0,0-0.1,0,0,0.1c0,0.1,0.1,0,0.1,0
		c0,0,0.3-0.2,0.5-0.2c0.2,0,0.4,0.3,0.5,0.6c0.1,0.4-0.4,0.8-0.6,0.9c-0.1,0.1-0.4,0.3-0.6,0c-0.2-0.3-0.4,0-0.4,0c0,0.6,0.4,1,1,1
		c0.3,0,0.6-0.2,0.8-0.4l0.2,0c0.1,0.5,0.5,0.8,1,0.8c0.4,0,0.7-0.2,0.9-0.5c0,0,0-0.3-0.3-0.2c-0.3,0.1-0.5-0.2-0.5-0.4
		c-0.1-0.2-0.3-0.8,0-1.1c0.2-0.2,0.5-0.3,0.7-0.2c0.1,0.1,0.3,0.4,0.3,0.4c0,0,0,0.1,0.1,0c0.1,0,0-0.1,0-0.1l-0.2-0.3
		c0,0-0.2-0.2,0.1-0.4l0.7-0.4c0,0,0.2-0.1,0.4,0c0.9,0.4-0.4,2-0.4,2l-0.9,2l-0.3-0.1c-0.3-0.1-0.7,0-0.8,0.3
		c-0.1,0.3,0,0.7,0.4,0.8l0.3,0.1l-0.3,0.6c0,0-3.5-1.3-7.7-1.3c-4.4,0-7.7,1.3-7.7,1.3l-0.3-0.5l0.3-0.1c0.3-0.1,0.5-0.5,0.4-0.8
		c-0.1-0.3-0.5-0.4-0.8-0.3l-0.3,0.1l-0.8-2c0,0-1.4-1.7-0.4-2c0.2-0.1,0.4,0,0.4,0l0.7,0.4c0.3,0.2,0.1,0.4,0.1,0.4l-0.2,0.3
		c0,0,0,0.1,0,0.1c0.1,0,0.1,0,0.1,0c0,0,0.2-0.3,0.3-0.4c0.2-0.1,0.5,0,0.7,0.2c0.3,0.3,0,0.9,0,1.1c-0.1,0.2-0.2,0.5-0.5,0.4
		c-0.3-0.1-0.3,0.2-0.3,0.2c0.2,0.3,0.5,0.5,0.9,0.5c0.5,0,0.9-0.4,1-0.9l0.1,0c0.2,0.2,0.5,0.4,0.8,0.4c0.5,0,1-0.4,1-1
		c0,0-0.2-0.3-0.4,0c-0.2,0.3-0.5,0.1-0.6,0c-0.1-0.1-0.7-0.5-0.6-0.9c0.1-0.3,0.3-0.5,0.5-0.6c0.1,0,0.5,0.2,0.5,0.2
		c0,0,0.1,0,0.1,0c0-0.1,0-0.1,0-0.1l-0.3-0.2c0,0-0.3-0.1-0.1-0.4l0.4-0.7c0,0,0.1-0.2,0.3-0.2c0.2,0,0.4,0.1,0.4,0.1l0.6,0.5
		c0.3,0.2,0.1,0.4,0.1,0.4l-0.2,0.2c0,0-0.1,0.1,0,0.1c0.1,0,0.1,0,0.1,0c0,0,0.2-0.3,0.4-0.3c0.2-0.1,0.5,0.1,0.7,0.4
		c0.2,0.3-0.1,0.9-0.2,1c-0.1,0.2-0.3,0.4-0.6,0.3c-0.3-0.2-0.4,0.1-0.4,0.1c0.1,0.3,0.4,0.6,0.8,0.7c0.5,0.1,1-0.2,1.1-0.7l0.1,0
		c0.1,0.3,0.4,0.5,0.7,0.5c0.5,0.1,1.1-0.2,1.1-0.9c0,0-0.1-0.3-0.4-0.1c-0.3,0.2-0.5,0-0.6-0.2c-0.1-0.1-0.6-0.6-0.4-1
		c0.1-0.3,0.4-0.5,0.6-0.5c0.1,0,0.4,0.2,0.4,0.2c0,0,0.1,0.1,0.1,0c0,0,0-0.1,0-0.1l-0.2-0.2c0,0-0.2-0.2,0-0.4l0.4-0.5
		c-0.4-0.5-1-0.8-1.7-0.8c-0.4,0-1,0.2-1.4,0.6c-0.5-0.4-1.1-0.7-1.9-0.5c-0.6,0.2-1.1,0.6-1.4,1c0,0,0.4-1.8,2.1-3.2
		C140.6,2,141.6,1.9,142,2.3 M138.9,11.2c0.1,0.3,0.4,0.5,0.7,0.5l0.6-0.1c0.4-0.1,0.6-0.4,0.5-0.7c-0.1-0.3-0.4-0.5-0.7-0.5
		l-0.6,0.1C139.1,10.5,138.9,10.8,138.9,11.2 M149.1,11.2c0.1-0.3-0.2-0.6-0.5-0.7l-0.6-0.1c-0.3-0.1-0.7,0.1-0.7,0.5
		c-0.1,0.3,0.2,0.6,0.5,0.7l0.6,0.1C148.8,11.7,149.1,11.5,149.1,11.2 M143.1,10.6c0,0.3,0.3,0.6,0.6,0.6h0.6c0.4,0,0.6-0.3,0.6-0.6
		c0-0.3-0.3-0.6-0.6-0.6h-0.6C143.4,10.1,143.1,10.3,143.1,10.6"/>
	<path class="st0" d="M145.7,22.5h0.5v0.7h-0.5V22.5z M132.7,25.7c-0.2,0.2-0.2,0.5,0,0.7l11,10.9c0.2,0.2,0.5,0.2,0.7,0l11-10.9
		c0.2-0.2,0.2-0.5,0-0.7l-11-10.9c-0.2-0.2-0.5-0.2-0.7,0L132.7,25.7z M142.8,13.6c0.6-0.6,1.7-0.6,2.3,0l11.4,11.3
		c0.6,0.6,0.6,1.6,0,2.3l-11.4,11.3c-0.6,0.6-1.7,0.6-2.3,0l-11.4-11.3c-0.6-0.6-0.6-1.6,0-2.3L142.8,13.6z M144,15.7l8.6,8.6
		c-0.4,0.1-0.8,0.1-1.1-0.1c-0.3-0.2-0.8-0.2-1.2,0c-0.2,0.1-0.5,0.2-0.8,0.2v-0.5h-0.4l0-1.4h0.4v-0.9h-1.9v0.6h-0.4v-0.9
		c0.3-0.2,0.9,0,0.9,0c-0.2-0.3-0.8-0.3-0.8-0.3c0.1-0.2,0.9-0.2,0.9-0.2c-0.5-0.3-0.8-0.2-0.8-0.2c0.1-0.3,0.8-0.5,0.8-0.5
		c-0.7-0.2-1.1,0.2-1.1,0.2s0.2-0.4,0.4-0.5c0.2-0.1-0.4,0-0.6,0.3c-0.2-0.3-0.8-0.4-0.6-0.3c0.2,0.1,0.4,0.5,0.4,0.5
		s-0.4-0.4-1.1-0.2c0,0,0.7,0.1,0.8,0.5c0,0-0.3-0.1-0.8,0.2c0,0,0.8,0,0.9,0.2c0,0-0.5,0-0.8,0.3c0,0,0.7-0.2,0.9,0v0.9h-0.4v-0.6
		h-1.9v0.9h0.4l0,1.4h-0.4v0.5c-0.2,0-0.5,0-0.7-0.1V15.7z M153,24.6l0.4,0.4c-0.2,0-0.3,0.1-0.5,0.1c-0.4,0.2-1,0.2-1.4,0
		c-0.3-0.2-0.8-0.2-1.1,0c-0.4,0.2-1,0.2-1.4,0c-0.3-0.2-0.8-0.2-1.1,0c-0.4,0.2-1,0.2-1.4,0c-0.3-0.2-0.8-0.2-1.1,0
		c-0.4,0.2-0.9,0.2-1.3,0v-0.5c0.4,0.2,1,0.2,1.3,0c0.3-0.2,0.8-0.2,1.1,0c0.4,0.2,1,0.2,1.4,0c0.3-0.2,0.8-0.2,1.1,0
		c0.4,0.2,1,0.2,1.4,0c0.3-0.2,0.8-0.2,1.2,0C151.9,24.8,152.5,24.8,153,24.6L153,24.6z M153.1,26v1.4l-1.1,1.1V26h-1.1v3.6
		l-1.1,1.1V26h-1.1v5.9l-1.1,1.1v-7h-1.1v8.1l-1.1,1.1V26H144v-0.4c0.4,0.2,1,0.2,1.3,0c0.3-0.2,0.8-0.2,1.1,0c0.4,0.2,1,0.2,1.4,0
		c0.3-0.2,0.8-0.2,1.1,0c0.4,0.2,1,0.2,1.4,0c0.3-0.2,0.8-0.2,1.2,0c0.4,0.2,1,0.2,1.4,0c0.3-0.2,0.7-0.2,1.1,0l0.5,0.5H153.1z
		 M139.4,29.6h0.5v0.8h-0.5V29.6z M141.9,29.6h0.5v0.8h-0.5V29.6z M141.5,31.3c-0.3,0.2-0.8,0.2-1.2,0.1l0-0.6
		c0-0.4,0.3-0.6,0.6-0.6c0.3,0,0.6,0.3,0.6,0.6L141.5,31.3z M139.8,32.2l-0.5-0.5c0.3-0.1,0.6,0,0.8,0.1c0.4,0.2,1,0.2,1.4,0
		c0.3-0.2,0.8-0.2,1.1,0c0.4,0.2,1,0.2,1.4,0v0.5c-0.4,0.2-1,0.2-1.4,0c-0.3-0.2-0.8-0.2-1.2,0c-0.4,0.2-1,0.2-1.4,0
		C140,32.2,139.9,32.2,139.8,32.2 M142.6,34.3c-0.2-0.1-0.6-0.2-0.9-0.1l-0.4-0.4c0.4-0.2,0.9-0.2,1.2,0c0.4,0.2,1,0.2,1.4,0l0,0.5
		C143.6,34.5,143,34.5,142.6,34.3 M144,35.2c-0.3,0.2-0.7,0.2-1.1,0.1l-0.7-0.7c0.2,0,0.3,0.1,0.4,0.1c0.4,0.2,1,0.2,1.4,0L144,35.2
		z M144,35.7l0,0.7l-0.6-0.6C143.6,35.8,143.8,35.7,144,35.7 M144,32.8l0,0.5c-0.4,0.2-1,0.2-1.4,0c-0.3-0.2-0.8-0.2-1.2,0
		c-0.1,0.1-0.3,0.1-0.5,0.2l-0.5-0.5c0.3,0.1,0.7,0,0.9-0.2c0.3-0.2,0.8-0.2,1.1,0C143,33,143.6,33,144,32.8 M140.6,19.1v7h1.1V18
		l1.1-1.1V26h1.2l0,5.3c-0.2,0.1-0.5,0.2-0.7,0.2v-0.5h-0.4l0-1.4h0.4v-0.9h-1.9v0.6h-0.4v-0.9c0.3-0.2,0.9,0,0.9,0
		c-0.2-0.3-0.8-0.3-0.8-0.3c0.1-0.2,0.9-0.2,0.9-0.2c-0.5-0.3-0.8-0.2-0.8-0.2c0.1-0.3,0.8-0.5,0.8-0.5c-0.7-0.2-1.1,0.2-1.1,0.2
		s0.2-0.4,0.4-0.5c0.2-0.1-0.4,0-0.6,0.3c-0.2-0.3-0.8-0.4-0.6-0.3c0.2,0.1,0.4,0.5,0.4,0.5s-0.4-0.4-1.1-0.2c0,0,0.7,0.1,0.8,0.5
		c0,0-0.3-0.1-0.8,0.2c0,0,0.8,0,0.9,0.2c0,0-0.5,0-0.8,0.3c0,0,0.7-0.2,0.9,0v0.9h-0.4v-0.6h-1.9v0.9h0.4v1.4h-0.3l-5-4.9h1.3v-1.3
		l1.1-1.1V26h1.1v-3.6l1.1-1.1V26h1.1v-5.8L140.6,19.1z M147.7,24.2c-0.3,0.1-0.8,0.1-1.2,0v-0.5c0-0.4,0.3-0.6,0.6-0.6
		c0.3,0,0.6,0.3,0.6,0.6L147.7,24.2z M148.2,22.5h0.5v0.7h-0.5V22.5z"/>
</g>
</svg>
