<?xml version="1.0" encoding="utf-8"?>
<!-- Generator: Adobe Illustrator 22.1.0, SVG Export Plug-In . SVG Version: 6.00 Build 0)  -->
<svg version="1.1" id="Capa_1" xmlns="http://www.w3.org/2000/svg" xmlns:xlink="http://www.w3.org/1999/xlink" x="0px" y="0px"
	 viewBox="0 0 92 108" style="enable-background:new 0 0 92 108;" xml:space="preserve">
<g>
	<path d="M46.5,11.3c-8.9-0.1-17.4,3.2-23.8,9.4c-6.4,6.2-10,14.4-10,23.2c0,7.3,2.3,14.1,6.7,19.9c4.3,5.6,10.4,9.7,17.2,11.7
		c0.6,0.2,1.1,0.7,1.2,1.3c-3.6,0.1-6.5,3-6.5,6.5c0,2.3,1.2,4.4,3.1,5.5c-0.6,1-1,2.2-1,3.4c0,3.4,2.6,6.2,6,6.5v1.6
		c0,3.6,3,6.5,6.7,6.5c3.7,0,6.7-2.9,6.7-6.5v-1.6c3.4-0.3,6-3.1,6-6.5c0-1.3-0.4-2.4-1-3.4c1.9-1.2,3.1-3.2,3.1-5.5
		c0-3.6-2.9-6.5-6.5-6.5c0.2-0.6,0.6-1.1,1.2-1.3c6.8-2,12.9-6.1,17.2-11.6c4.4-5.7,6.8-12.6,6.8-19.8c0-8.7-3.4-16.9-9.6-23
		C63.6,14.9,55.3,11.4,46.5,11.3L46.5,11.3z M48.5,100.5c0,1.3-1.1,2.4-2.5,2.4c-1.4,0-2.5-1.1-2.5-2.4v-1.6h4.9L48.5,100.5
		L48.5,100.5z M52,94.7H40c-1.4,0-2.5-1.1-2.5-2.4c0-1.3,1.1-2.4,2.5-2.4h12c1.4,0,2.5,1.1,2.5,2.4C54.5,93.7,53.4,94.7,52,94.7z
		 M56.6,83.4c0,1.3-1.1,2.4-2.5,2.4H37.9c-1.4,0-2.5-1.1-2.5-2.4c0-1.3,1.1-2.4,2.5-2.4h16.2C55.5,81,56.6,82,56.6,83.4z M54.3,71.6
		c-2.4,0.7-4.1,2.8-4.3,5.3H42c-0.2-2.4-1.9-4.6-4.3-5.3c-12.4-3.6-21-14.9-20.9-27.6c0-7.7,3.2-14.9,8.8-20.3
		c5.6-5.4,13-8.3,20.8-8.2c15.9,0.2,28.8,13.1,28.8,28.6C75.2,56.7,66.6,68,54.3,71.6L54.3,71.6z"/>
	<path d="M29,27.3c-1.8,1.7-3.2,3.7-4.4,5.8c-0.5,1-0.2,2.3,0.9,2.8c0.3,0.2,0.7,0.2,1,0.2c0.8,0,1.5-0.4,1.9-1.1
		c0.9-1.7,2.2-3.4,3.6-4.8c0.8-0.8,0.8-2.1,0-2.9C31.2,26.5,29.8,26.5,29,27.3L29,27.3z"/>
	<path d="M25.9,42.5c-0.3-0.8-1.2-1.3-2.1-1.3c-0.9,0-1.6,0.6-1.9,1.5c-0.3,0.8,0,1.7,0.7,2.2c0.7,0.5,1.7,0.6,2.5,0.1
		C26,44.4,26.3,43.4,25.9,42.5z"/>
	<path d="M46,7.4c1.2,0,2.1-0.9,2.1-2.1V3.1C48.1,1.9,47.2,1,46,1s-2.1,0.9-2.1,2.1v2.3C43.9,6.5,44.8,7.4,46,7.4z"/>
	<path d="M88.9,43.1h-2.3c-1.2,0-2.1,0.9-2.1,2.1c0,1.1,0.9,2.1,2.1,2.1h2.3c1.2,0,2.1-0.9,2.1-2.1C91,44,90.1,43.1,88.9,43.1
		L88.9,43.1z"/>
	<path d="M5.4,43.1H3.1C1.9,43.1,1,44,1,45.2c0,1.1,0.9,2.1,2.1,2.1h2.3c1.2,0,2.1-0.9,2.1-2.1C7.5,44,6.6,43.1,5.4,43.1z"/>
	<path d="M74.7,19.1c0.5,0,1.1-0.2,1.5-0.6l1.6-1.6c0.8-0.8,0.8-2.1,0-2.9c-0.8-0.8-2.2-0.8-3,0l-1.6,1.6c-0.8,0.8-0.8,2.1,0,2.9
		C73.6,18.9,74.2,19.1,74.7,19.1L74.7,19.1z"/>
	<path d="M15.8,71.9l-1.6,1.6c-0.8,0.8-0.8,2.1,0,2.9c0.4,0.4,1,0.6,1.5,0.6c0.5,0,1.1-0.2,1.5-0.6l1.6-1.6c0.8-0.8,0.8-2.1,0-2.9
		C18,71,16.6,71,15.8,71.9z"/>
	<path d="M76.2,71.9c-0.8-0.8-2.2-0.8-3,0s-0.8,2.1,0,2.9l1.6,1.6c0.4,0.4,1,0.6,1.5,0.6s1.1-0.2,1.5-0.6c0.8-0.8,0.8-2.1,0-2.9
		L76.2,71.9z"/>
	<path d="M15.8,18.5c0.4,0.4,1,0.6,1.5,0.6c0.5,0,1.1-0.2,1.5-0.6c0.8-0.8,0.8-2.1,0-2.9l-1.6-1.6c-0.8-0.8-2.2-0.8-3,0
		c-0.8,0.8-0.8,2.1,0,2.9L15.8,18.5z"/>
	<path d="M52,42.3l4.4-7c0.4-0.6,0.4-1.4,0-2.1c-0.4-0.7-1.1-1.1-1.8-1.1h-9c-1.8,0-3.4,1-4.2,2.5l-5.4,10.2
		c-0.8,1.4-0.7,3.1,0.1,4.5c0.9,1.4,2.4,2.2,4,2.2h2.6l-0.2,9.3c0,0.9,0.6,1.7,1.4,2c0.2,0.1,0.5,0.1,0.7,0.1c0.7,0,1.3-0.3,1.7-0.8
		l9.4-12.5c1.1-1.4,1.2-3.3,0.4-4.8C55.3,43.3,53.7,42.4,52,42.3z M52.3,47.3l-5.4,7.2l0.1-4.8c0-0.6-0.2-1.1-0.6-1.5
		c-0.4-0.4-0.9-0.6-1.5-0.6h-4.8c-0.2,0-0.4-0.1-0.4-0.2c-0.1-0.1-0.1-0.3,0-0.5l5.4-10.2c0.1-0.2,0.3-0.3,0.4-0.3h5.2l-4.4,7
		c-0.4,0.6-0.4,1.4,0,2.1c0.4,0.7,1.1,1.1,1.8,1.1h3.7c0.3,0,0.4,0.1,0.4,0.3C52.4,46.9,52.5,47.1,52.3,47.3L52.3,47.3z"/>
</g>
</svg>
