<?xml version="1.0" encoding="utf-8"?>
<!-- Generator: Adobe Illustrator 22.1.0, SVG Export Plug-In . SVG Version: 6.00 Build 0)  -->
<svg version="1.1" id="Capa_1" xmlns="http://www.w3.org/2000/svg" xmlns:xlink="http://www.w3.org/1999/xlink" x="0px" y="0px"
	 viewBox="0 0 62 62" style="enable-background:new 0 0 62 62;" xml:space="preserve">
<g>
	<g>
		<g>
			<path d="M59.8,54h-1.2V41.1c0,0,1.2,0,1.2,0c0.8,0,1.4-0.9,1-1.7l-3.5-7c-0.2-0.4-0.6-0.6-1-0.6H42.2V13.4c0,0,1.2,0,1.2,0
				c1.1,0,1.6-1.4,0.7-2.1L31.7,1.3c-0.4-0.3-1-0.3-1.5,0c0,0-12.4,10-12.4,10.1c-0.8,0.7-0.3,2.1,0.7,2.1h1.2v18.3H4.5
				c-0.5,0-1,0.3-1.1,0.8c0,0-2.3,7-2.3,7c-0.2,0.7,0.3,1.5,1.1,1.5h1.2V54H2.2C1.5,54,1,54.5,1,55.1v4.7C1,60.5,1.5,61,2.2,61h57.7
				c0.6,0,1.2-0.5,1.2-1.2v-4.7C61,54.5,60.5,54,59.8,54z M19.8,58.7H3.3v-2.3h16.4V58.7z M19.8,54H5.7V41.1h14.1V54z M19.8,38.7
				h-16L5.4,34h14.4V38.7z M42.2,34h13.3l2.3,4.7H42.2V34z M42.2,41.1h14.1V54H42.2V41.1z M25.1,58.7h-3v-2.3h3V58.7z M25.1,54h-3
				v-3.4l3,1.2V54z M25.6,49.5l-3.5-1.4v-5.3l4.7,4.8C26.3,48.1,25.8,48.7,25.6,49.5z M23.7,41.1h6.1v4.8c-0.3,0.1-0.7,0.2-1,0.3
				L23.7,41.1z M34.5,58.7h-7v-7c0-1.9,1.6-3.5,3.5-3.5s3.5,1.6,3.5,3.5V58.7z M32.2,45.9v-4.8h6.1l-5.1,5.1
				C32.9,46.1,32.5,46,32.2,45.9z M39.9,58.7h-3v-2.3h3V58.7z M39.9,54h-3v-2.1l3-1.2V54z M39.9,48.1l-3.5,1.4
				c-0.3-0.7-0.7-1.4-1.3-1.9l4.7-4.8V48.1z M39.9,38.7H22.1V13.4h17.8V38.7z M21.9,11.1L31,3.7l9.1,7.4H21.9z M58.7,58.7H42.2v-2.3
				h16.4V58.7z"/>
		</g>
	</g>
	<g>
		<g>
			<path d="M31,15.8c-3.6,0-6.4,2.9-6.4,6.4s2.9,6.4,6.4,6.4s6.4-2.9,6.4-6.4S34.6,15.8,31,15.8z M31,26.3c-2.3,0-4.1-1.8-4.1-4.1
				c0-1.9,1.2-3.4,2.9-3.9v3.9c0,0.6,0.5,1.2,1.2,1.2h3.9C34.4,25.1,32.9,26.3,31,26.3z M32.2,21v-2.8c1.3,0.4,2.4,1.4,2.8,2.8H32.2
				z"/>
		</g>
	</g>
	<g>
		<g>
			<path d="M16.2,49.3v-2.4c0-1.9-1.6-3.4-3.5-3.4S9.2,45,9.2,46.9v2.4c-0.6,0-1.2,0.5-1.2,1.2s0.5,1.2,1.2,1.2h7
				c0.6,0,1.2-0.5,1.2-1.2S16.9,49.3,16.2,49.3z M13.9,49.3h-2.3v-2.4c0-0.6,0.5-1.1,1.2-1.1s1.2,0.5,1.2,1.1V49.3z"/>
		</g>
	</g>
	<g>
		<g>
			<path d="M52.8,49.3v-2.4c0-1.9-1.6-3.4-3.5-3.4s-3.5,1.5-3.5,3.4v2.4c-0.6,0-1.2,0.5-1.2,1.2s0.5,1.2,1.2,1.2h7
				c0.6,0,1.2-0.5,1.2-1.2S53.4,49.3,52.8,49.3z M50.5,49.3h-2.3v-2.4c0-0.6,0.5-1.1,1.2-1.1s1.2,0.5,1.2,1.1V49.3z"/>
		</g>
	</g>
</g>
</svg>
