<?xml version="1.0" encoding="utf-8"?>
<!-- Generator: Adobe Illustrator 22.1.0, SVG Export Plug-In . SVG Version: 6.00 Build 0)  -->
<svg version="1.1" id="Capa_1" xmlns="http://www.w3.org/2000/svg" xmlns:xlink="http://www.w3.org/1999/xlink" x="0px" y="0px"
	 viewBox="0 0 166 107" style="enable-background:new 0 0 166 107;" xml:space="preserve">
<style type="text/css">
	.st0{fill:#FFFFFF;}
	.st1{fill:#010000;}
	.st2{fill:#020001;}
	.st3{fill:#020101;}
	.st4{fill:#030202;}
	.st5{fill:#577C75;}
	.st6{fill:#587C75;}
	.st7{fill:#5A7D77;}
	.st8{fill:#577C74;}
	.st9{fill:#597C75;}
</style>
<g>
	<path class="st0" d="M1,71.3c2.7,4,11.3,5,13.5,4.8s4.1-0.4,4.1-0.4s1.6,2.9,4.1,5.4s20.7,18,41.3,22.3s38.3,4,60.2-6.5
		s28.4-17.6,35.6-23.5c7.2-5.9,7.4-25.1-2.3-34.8S125.5,9.9,105,4.6S67.1,0.9,58.1,2.5c-7.5,1.3-25.5,4-33.1,11.5S9.1,33,6.9,42.4
		c-3.8,16.5,5.6,22.3,5.6,22.3C9.4,69.8,1,71.3,1,71.3z"/>
	<path class="st1" d="M102.7,58.2c1.1-1.9,1.9-3.4,2.7-4.9c0.6-1,1.4-1.4,2.6-1.3c1.1,0.1,1.3,0.9,1.6,1.8c1.4,4.2,3.1,8.3,4.9,12.3
		c0.4,0.9,1.2,2.2-0.2,2.9c-1.2,0.6-2.5,0.1-3.4-1c-0.8-1-1.7-1.9-2.3-3c-1-2-1.7-1.3-2.5,0.1c-0.4,0.8-0.9,1.7-1.5,2.4
		c-1.7,2.4-3.6,2.3-5-0.4c-0.6-1.1-0.2-3.1-1.5-3.2c-1-0.1-1.2,1.9-2.1,2.8c-0.7,0.7-1.3,1.6-2.1,2.3c-0.9,0.8-2.1,1-3.1,0.4
		c-1.2-0.7-0.5-1.8-0.1-2.7c2-4,3.5-8.1,5-12.3c0.4-1.1-0.3-3,1.9-3.1c1.8,0,2.6,1.3,3.3,2.7C101.5,55.3,102,56.5,102.7,58.2z"/>
	<path class="st2" d="M117,67.5c0.8-1.4,0.1-2.7-0.8-3.8c-0.9-1.2-0.5-1.8,0.8-1.9c1.7,0,2.2-1.2,2.9-2.4c1.2-2.1,2.4-4.3,3.7-6.3
		c1.3-2.1,2.7-2.2,4.4-0.5c1.4,1.3,2.4,2.9,2.9,4.8c0.9,3.3,1.9,6.5,2.8,9.8c0.2,0.6,0.8,1.2,0.4,1.8c-0.5,0.8-0.1,2.2-1.2,2.3
		c-1.6,0.2-3.1-0.8-3.7-2.2c-0.8-1.6-1.9-1.8-3.4-1.9c-1.8-0.1-3,0.2-3.7,2c-0.4,1-1.2,1.7-2.5,1C118.5,69.6,117,69.4,117,67.5z"/>
	<path class="st2" d="M73.3,68.7c-0.5,0.7-0.2,2-1.2,2.5c-0.8,0.4-1.7-0.3-2.4-0.7c-0.5-0.3-1-0.8-1.4-1.2c-2.3-2.9-5-2.8-7.1,0.1
		c-0.6,0.9-1.4,1.6-2.6,0.9c-1.1-0.7-2.9-0.9-2.4-2.7c0.4-1.5,0-2.6-0.8-3.7c-0.9-1.2-0.8-2,0.7-2c1.6,0,2.1-1.1,2.7-2.2
		c1.2-2.2,2.5-4.4,3.8-6.5c1.3-2,2.7-2.2,4.5-0.5c1.1,1,2.1,2.3,2.5,3.7c1.2,3.8,2,7.8,3.4,11.6C73.2,68.1,73.2,68.3,73.3,68.7z"/>
	<path class="st3" d="M39.2,67.3c0.2-2.6,1.2-5.2,1.7-7.9c0.2-1.2,1-2.3-0.5-3.4c-0.8-0.6-0.2-1.5,0.6-2.2c3.3-2.5,9-2.1,11.7,0.9
		c1.6,1.7,1.6,4-0.1,5.5c-1.6,1.4-3.4,2.7-5.7,2.6c-1.6,0-2.3,0.7-2.7,2.3c-0.4,1.6-0.4,3.4-2.2,4.5c-2.1,1.3-2.6,1.2-2.9-1.3
		C39.3,68.1,39.3,67.8,39.2,67.3z"/>
	<path class="st3" d="M87,34.8c0.7,1,2.2-0.3,2.5,1.1c0.3,1.5-1,1.9-2,2.2c-2.2,0.8-3.2,2.4-3.7,4.5c-0.1,0.7-0.2,1.4-0.6,2.1
		c-0.5,1.1-0.3,2.9-2,3c-1.2,0.1-3.5-3.2-3.2-4.5c0.7-3.7,1.4-7.5,2.2-11.2c0.5-2.2,2.4-2.3,4.1-2.5c1.9-0.2,3.8-0.2,5.7-0.2
		c0.7,0,2-0.5,2,0.9c-0.1,1.2,0.5,2.8-1.4,3.3C89.4,33.9,88,33.8,87,34.8z"/>
	<path class="st3" d="M82.3,69.7c-2.7-0.3-5.1,0.5-7.1-1.3c-1-0.9-1.8-1.7-0.1-2.6c0.8-0.5,1.3-1.2,1.3-2.1c0.1-3,1.1-5.9,1.2-8.9
		c0-1.6,0.3-3.3,2.4-3.8c1.7-0.4,3,0.5,2.8,2.2c-0.4,3-0.8,5.9-1.3,8.9c-0.5,2.6-0.2,3.1,2.5,3.3c1.4,0.1,2.8,0,4.2,0.4
		c1.1,0.3,1.5,0.7,0.9,1.8c-0.8,1.7-2,2.6-3.9,2.3C84,69.6,82.9,69.7,82.3,69.7z"/>
	<path class="st3" d="M78.4,28.4c-0.3,1.9-0.2,4-1.2,5.7c-1.5,2.5-6.6,3.6-9.2,2.2c-0.9-0.5-1.3-1.3-1.5-2.2
		c-0.8-2.9-0.1-5.7,0.5-8.4c0.2-0.9,0.8-1.8,1.8-1.7c1.1,0.1,1.9,1,1.9,2.1c0.1,1.1-0.1,2.2-0.2,3.3c-0.1,0.9-0.3,1.7,0,2.6
		c0.2,0.5,0.4,1.2,1,1.2c0.6,0.1,0.9-0.5,1.3-0.9c1.1-1.4,0.8-3.2,1.3-4.7c0.1-0.4,0.1-1,0.2-1.4c0.3-1,0.6-2.2,1.8-2.2
		c1.1,0,1.4,1.1,1.8,1.9C78.4,26.7,78.5,27.5,78.4,28.4z"/>
	<path class="st3" d="M95.5,46.7c-0.6-0.2-1.9-0.4-1.8-1.7c0-1.2-0.1-2.2-0.8-3.1c-0.2-0.3-0.3-0.8,0.1-0.8c3-0.5,3.2-3.5,4.5-5.3
		c1.8-2.5,3.1-2.7,4.7-0.1c1.9,3,2,6.6,3.2,9.9c0.1,0.3,0,1.6-0.9,1.7c-1,0.2-2-0.4-2.4-1.2c-0.7-1.4-1.7-1.4-2.9-1.4
		c-1,0-1.7,0.2-2,1.2C97,46.4,96.6,46.8,95.5,46.7z"/>
	<path class="st4" d="M55.1,31.9c0.1-0.9,0.1-1.7,0.2-2.6c0.1-1.3,0-2.4-1.7-2.6c-0.8-0.1-1.2-0.5-1.1-1.3c0-0.7,0.7-0.9,1.2-1
		c3.7-0.6,7.5-1.6,11.2-0.1c0.4,0.2,0.7,0.4,0.7,0.8c0,0.6-0.3,1-0.8,1.3c-1.4,0.7-2.9,1-4.3,1.2c-1.5,0.2-2,0.9-2,2.4
		c0,1.8-0.2,3.6-0.2,5.5c0,1.1-0.5,1.9-1.7,1.8c-1-0.1-1.6-0.9-1.6-2c0-1.1,0-2.2,0-3.3C55,31.9,55.1,31.9,55.1,31.9z"/>
	<path class="st4" d="M111.9,36.3c-0.9,1.2-0.8,2.1,0.7,2.8c2.6,1.1,3.1,4.6,0.9,6.3c-1.6,1.3-5.4,1.2-6.9-0.1
		c-0.4-0.4-0.9-0.9-0.4-1.4c0.9-0.9,1.9-1.1,2.9-0.1c0.7,0.6,1.6,1,2.1-0.1c0.4-0.9,0.4-1.9-0.7-2.4c-0.2-0.1-0.4-0.2-0.6-0.3
		c-1.7-1-2.8-2.3-1.9-4.5c1-2.3,2.9-3.6,4.9-3.2c0.9,0.2,1.7,0.6,1.8,1.6c0.1,1.1-0.4,2.1-1.3,2.6C112.2,38.1,112.5,36.6,111.9,36.3
		z"/>
	<path class="st5" d="M155.5,62.9c-4-0.3-7.7-0.7-11.4-0.9c-1.3-0.1-2.2-0.6-2-2c0.2-1.4,1.3-1.3,2.4-1.3c3.6,0.3,7.2,0.6,10.8,0.9
		c1.3,0.1,2.7,0,2.8,1.8C158.1,62.7,157.5,63,155.5,62.9z"/>
	<path class="st6" d="M60.7,80.2c-0.3,0.4-0.6,1-1,1.4c-2.2,2.4-4.1,5-5.8,7.8c-0.6,1-1.4,1.7-2.5,1c-1.2-0.7-0.9-1.7-0.3-2.7
		c1.8-3.2,4-6.1,6.6-8.7c0.6-0.6,1.2-1.1,2.1-0.6C60.4,78.8,60.7,79.3,60.7,80.2z"/>
	<path class="st7" d="M26,53.6c-1.6,0-3.2-0.1-4.8,0c-1.2,0.1-2.2-0.1-2.3-1.5c-0.1-1.3,0.9-1.7,2.1-1.7c3.5,0,7-0.1,10.5-0.1
		c1.1,0,1.8,0.6,1.7,1.8c0,1.2-0.8,1.4-1.8,1.4c-1.8,0-3.6,0-5.5,0C26,53.5,26,53.5,26,53.6z"/>
	<path class="st6" d="M135.5,33.2c-0.1,0.9-0.6,1.3-1.3,1.6c-3.1,1.4-6,3.2-8.7,5.2c-0.8,0.6-1.5,0.9-2.3,0
		c-0.7-0.9-0.6-1.8,0.3-2.5c2.9-2.3,6.1-4.2,9.6-5.6C134.3,31.4,135.2,32,135.5,33.2z"/>
	<path class="st8" d="M83.2,14.9c0,1,0,1.9,0,2.9c0,0.8-0.5,1.3-1.4,1.4c-0.9,0.1-1.7-0.3-1.8-1.2c-0.1-3.2-0.2-6.5-0.2-9.7
		c0-0.8,0.8-1.1,1.6-1.1c1,0.1,1.4,0.7,1.4,1.6C83,10.8,83.1,12.9,83.2,14.9z"/>
	<path class="st6" d="M109.5,79.1c0.8,0,8,6.3,8,7c0,0.6-0.2,1.1-0.7,1.4c-0.7,0.4-1.4,0.4-2,0c-2.3-1.8-4.5-3.7-6.5-5.9
		c-0.5-0.5-0.5-1.2-0.2-1.8C108.4,79.3,108.9,79,109.5,79.1z"/>
	<path class="st9" d="M36,24.8c-0.1-1.2,1.3-2.3,2.2-1.5c2,1.8,3.7,3.9,5.5,5.9c0.4,0.5,0.2,1.2-0.3,1.8c-0.4,0.5-0.9,0.6-1.5,0.5
		C40.9,31.2,36.1,25.7,36,24.8z"/>
	<path class="st0" d="M125.8,60.1c0.5,0.1,0.7,0.6,0.8,1c0.1,0.5-0.1,0.9-0.7,0.9c-0.4,0-0.8-0.1-0.8-0.6
		C125.1,60.9,125.2,60.4,125.8,60.1z"/>
	<path class="st0" d="M64.8,62c-0.6,0-0.8-0.4-0.7-0.9c0.1-0.4,0.3-1,0.8-0.9c0.5,0,0.6,0.6,0.7,1.1C65.7,61.8,65.4,62.1,64.8,62z"
		/>
	<path class="st0" d="M48.1,58.9c-1.7,0.2-2.3,0-2.1-1.1c0.1-0.8-0.3-2.1,1.1-1.9c1,0.2,2.6,0.4,2.7,1.8
		C49.8,59.1,48.3,58.9,48.1,58.9z"/>
	<path class="st0" d="M99.4,40.9c-0.5-0.1-0.7-0.3-0.6-0.7c0.1-0.3,0.2-0.8,0.7-0.7c0.4,0.1,0.6,0.5,0.5,0.9
		C99.9,40.7,99.6,40.8,99.4,40.9z"/>
</g>
</svg>
