<?xml version="1.0" standalone="no"?>
<!DOCTYPE svg PUBLIC "-//W3C//DTD SVG 20010904//EN"
 "http://www.w3.org/TR/2001/REC-SVG-20010904/DTD/svg10.dtd">
<svg version="1.0" xmlns="http://www.w3.org/2000/svg"
 width="324.000000pt" height="24.000000pt" viewBox="0 0 324.000000 24.000000"
 preserveAspectRatio="xMidYMid meet">

<g transform="translate(0.000000,24.000000) scale(0.100000,-0.100000)"
fill="#000000" stroke="none">
<path d="M3160 178 c-24 -106 4 -138 33 -39 20 64 18 91 -7 91 -9 0 -19 -19
-26 -52z"/>
<path d="M361 201 c-6 -11 -11 -36 -11 -56 0 -20 -7 -49 -15 -64 -20 -39 -2
-53 62 -49 35 2 49 7 51 20 2 12 -5 17 -25 20 -28 3 -28 4 -28 72 0 72 -14 95
-34 57z"/>
<path d="M1723 207 c-46 -11 -53 -22 -26 -42 14 -11 17 -26 15 -79 -3 -61 -2
-66 17 -66 18 0 21 6 21 50 0 41 5 56 25 75 13 14 33 25 45 25 31 0 24 27 -11
39 -18 6 -35 10 -38 10 -3 -1 -25 -6 -48 -12z"/>
<path d="M2560 184 c-6 -22 -14 -68 -17 -103 l-6 -64 34 7 c19 3 47 20 63 36
25 25 28 32 19 52 -6 13 -7 32 -2 45 10 28 -8 51 -48 59 -30 6 -32 4 -43 -32z"/>
<path d="M2850 208 c-48 -13 -58 -25 -34 -42 15 -12 19 -27 19 -77 0 -53 3
-64 18 -67 14 -3 17 4 17 40 0 58 18 89 59 103 48 16 49 30 3 43 -22 7 -41 12
-43 11 -2 0 -20 -5 -39 -11z"/>
<path d="M40 200 c-8 -5 -15 -22 -16 -37 0 -15 -4 -52 -9 -80 -7 -46 -5 -53 9
-53 10 0 22 13 28 30 7 20 23 37 47 48 26 12 37 24 39 44 5 43 -57 74 -98 48z
m63 -45 c1 -5 -6 -11 -15 -13 -11 -2 -18 3 -18 13 0 17 30 18 33 0z"/>
<path d="M205 169 c-10 -22 -27 -46 -37 -53 -14 -10 -17 -21 -12 -44 10 -48
30 -60 55 -33 19 21 22 21 42 6 57 -41 65 -33 48 47 -25 122 -63 152 -96 77z"/>
<path d="M497 133 c-15 -43 -27 -84 -27 -90 0 -22 23 -14 46 15 21 26 23 26
30 7 13 -34 28 -36 52 -7 l22 27 24 -30 c36 -45 43 -13 15 74 -25 79 -50 94
-70 44 l-11 -28 -14 33 c-8 17 -20 32 -27 32 -7 0 -25 -35 -40 -77z"/>
<path d="M742 165 c-12 -25 -29 -48 -37 -51 -17 -7 -10 -61 11 -84 12 -12 17
-11 35 9 19 21 22 21 42 6 57 -41 65 -33 48 47 -26 125 -61 151 -99 73z"/>
<path d="M1166 172 c-15 -22 -26 -52 -26 -70 0 -36 30 -72 59 -72 32 0 71 41
78 82 5 32 1 41 -25 68 -17 16 -37 30 -45 30 -8 0 -26 -17 -41 -38z m58 -31
c10 -15 -12 -61 -29 -61 -15 0 -20 26 -9 54 7 17 29 21 38 7z"/>
<path d="M1341 189 c-43 -117 -53 -151 -45 -159 11 -11 25 -3 47 29 l16 24 10
-26 c13 -33 36 -35 52 -4 6 12 13 24 15 26 2 2 14 -9 27 -24 41 -48 49 -23 18
63 -28 80 -48 96 -66 55 -12 -28 -22 -29 -30 -4 -3 11 -12 25 -20 31 -12 10
-16 8 -24 -11z"/>
<path d="M1558 203 c-13 -3 -18 -14 -18 -36 0 -18 -3 -56 -6 -85 -6 -43 -4
-52 9 -52 8 0 20 13 25 29 6 18 24 37 44 47 53 27 61 51 28 84 -19 19 -44 23
-82 13z m62 -48 c0 -8 -7 -15 -15 -15 -8 0 -15 7 -15 15 0 8 7 15 15 15 8 0
15 -7 15 -15z"/>
<path d="M1874 160 c-15 -27 -34 -50 -42 -50 -10 0 -12 -5 -7 -17 4 -10 7 -26
7 -35 -1 -30 33 -41 53 -18 23 25 31 25 52 0 19 -22 53 -27 53 -7 0 6 -9 43
-20 80 -32 113 -54 124 -96 47z"/>
<path d="M2195 160 c-14 -27 -30 -50 -36 -50 -13 0 0 -72 14 -82 6 -3 22 2 35
13 24 19 51 14 68 -12 10 -17 57 -1 81 28 21 26 22 26 29 8 13 -34 28 -36 52
-7 l22 27 24 -30 c17 -21 28 -27 35 -20 16 16 -39 165 -61 165 -9 0 -20 -9
-23 -20 -9 -27 -19 -25 -33 5 -20 43 -37 29 -62 -50 -13 -41 -26 -72 -30 -70
-4 3 -13 26 -19 52 -15 57 -36 93 -56 93 -8 0 -26 -22 -40 -50z"/>
<path d="M2987 193 c-33 -114 -2 -184 74 -168 53 12 83 88 63 163 -11 41 -38
22 -49 -35 -11 -56 -30 -87 -39 -62 -3 8 -7 36 -8 64 -2 37 -7 51 -20 53 -9 2
-19 -5 -21 -15z"/>
<path d="M1026 169 c-61 -72 -6 -171 78 -140 17 7 26 18 26 32 0 19 -4 20 -34
15 -25 -5 -35 -3 -40 9 -8 22 4 51 15 34 11 -18 39 7 39 35 0 52 -46 60 -84
15z"/>
<path d="M3147 43 c-13 -12 -7 -33 8 -33 8 0 15 9 15 20 0 20 -11 26 -23 13z"/>
</g>
</svg>
