<?xml version="1.0" encoding="utf-8"?>
<!-- Generator: Adobe Illustrator 22.1.0, SVG Export Plug-In . SVG Version: 6.00 Build 0)  -->
<svg version="1.1" id="Capa_1" xmlns="http://www.w3.org/2000/svg" xmlns:xlink="http://www.w3.org/1999/xlink" x="0px" y="0px"
	 viewBox="0 0 73 108" style="enable-background:new 0 0 73 108;" xml:space="preserve">
<g>
	<path d="M30.5,1c-1.2,0-2.1,0.9-2.1,2.1v12.8c0,1.1,0.9,2.1,2.1,2.1c1.2,0,2.1-0.9,2.1-2.1V3.1C32.6,1.9,31.6,1,30.5,1z"/>
	<path d="M57.9,28.2H45c-1.2,0-2.1,0.9-2.1,2.1c0,1.1,0.9,2.1,2.1,2.1h12.9c1.2,0,2.1-0.9,2.1-2.1C59.9,29.1,59,28.2,57.9,28.2z"/>
	<path d="M16,28.2H3.1c-1.2,0-2.1,0.9-2.1,2.1c0,1.1,0.9,2.1,2.1,2.1H16c1.2,0,2.1-0.9,2.1-2.1C18,29.1,17.1,28.2,16,28.2z"/>
	<path d="M20.2,17.1l-6.1-6c-0.8-0.8-2.1-0.8-3,0c-0.8,0.8-0.8,2.1,0,2.9l6.1,6c0.4,0.4,0.9,0.6,1.5,0.6c0.5,0,1.1-0.2,1.5-0.6
		C21,19.2,21,17.9,20.2,17.1z"/>
	<path d="M49.8,11c-0.8-0.8-2.1-0.8-3,0l-6.1,6c-0.8,0.8-0.8,2.1,0,2.9c0.4,0.4,0.9,0.6,1.5,0.6s1.1-0.2,1.5-0.6l6.1-6
		C50.6,13.2,50.6,11.9,49.8,11z"/>
	<path d="M64.3,48.1c-1.4,0-2.7,0.4-3.9,1c-0.9-3.2-3.9-5.5-7.4-5.5c-2.2,0-4.2,0.9-5.6,2.4c-1.4-1.5-3.4-2.4-5.6-2.4
		c-1.3,0-2.5,0.3-3.5,0.9V30.2c0-4.2-3.5-7.7-7.7-7.7s-7.7,3.4-7.7,7.7v10.9c0,1.1,0.9,2.1,2.1,2.1s2.1-0.9,2.1-2.1V30.2
		c0-1.9,1.6-3.5,3.5-3.5s3.5,1.6,3.5,3.5v34.7C34,66,35,67,36.1,67s2.1-0.9,2.1-2.1V51.4c0-1.9,1.6-3.5,3.5-3.5s3.5,1.6,3.5,3.5v2
		v11.5c0,1.1,0.9,2.1,2.1,2.1s2.1-0.9,2.1-2.1V53.4v-2c0-1.9,1.6-3.5,3.5-3.5c2,0,3.5,1.6,3.5,3.5v4.4v3.6v5.5
		c0,1.1,0.9,2.1,2.1,2.1c1.2,0,2.1-0.9,2.1-2.1v-5.5v-3.6c0-1.9,1.6-3.5,3.5-3.5c2,0,3.5,1.6,3.5,3.5v21.7c0,1.5-0.1,3.1-0.4,4.6
		c-0.2,1.1,0.5,2.2,1.7,2.4c0.1,0,0.3,0,0.4,0c1,0,1.9-0.7,2.1-1.7c0.3-1.7,0.5-3.5,0.5-5.3V55.8C72,51.6,68.5,48.1,64.3,48.1z"/>
	<path d="M62.6,96.1c-0.8-0.8-2.1-0.9-2.9-0.1c-4.8,4.4-11,6.8-17.5,6.8c-9.8,0-18.8-5.6-23.1-14.4L9.5,68.8c-0.9-1.8-0.2-4,1.5-4.9
		c1.8-1,4.1-0.4,5.2,1.3l6.8,11.1c0.5,0.8,1.4,1.2,2.3,0.9s1.5-1.1,1.5-2V54.8c0-1.1-0.9-2.1-2.1-2.1s-2.1,0.9-2.1,2.1v12.9L19.8,63
		c-2.3-3.7-7-4.9-10.8-2.7c-3.6,2.1-5,6.6-3.2,10.3l9.6,19.7c2.4,5,6.2,9.2,11,12.2c4.7,3,10.2,4.5,15.8,4.5
		c7.6,0,14.8-2.8,20.3-7.9C63.4,98.3,63.4,97,62.6,96.1z"/>
	<path d="M68,89.1c-0.4-0.4-0.9-0.6-1.5-0.6c-0.5,0-1.1,0.2-1.5,0.6c-0.4,0.4-0.6,0.9-0.6,1.5c0,0.5,0.2,1.1,0.6,1.5
		c0.4,0.4,0.9,0.6,1.5,0.6c0.5,0,1.1-0.2,1.5-0.6c0.4-0.4,0.6-0.9,0.6-1.5C68.6,90,68.4,89.5,68,89.1z"/>
	<path d="M26.3,46.7c-0.4-0.4-0.9-0.6-1.5-0.6c-0.5,0-1.1,0.2-1.5,0.6c-0.4,0.4-0.6,0.9-0.6,1.5s0.2,1.1,0.6,1.5s0.9,0.6,1.5,0.6
		c0.5,0,1.1-0.2,1.5-0.6c0.4-0.4,0.6-0.9,0.6-1.5S26.7,47.1,26.3,46.7z"/>
</g>
</svg>
