<?xml version="1.0" encoding="utf-8"?>
<!-- Generator: Adobe Illustrator 22.1.0, SVG Export Plug-In . SVG Version: 6.00 Build 0)  -->
<svg version="1.1" id="Capa_1" xmlns="http://www.w3.org/2000/svg" xmlns:xlink="http://www.w3.org/1999/xlink" x="0px" y="0px"
	 viewBox="0 0 41 48" style="enable-background:new 0 0 41 48;" xml:space="preserve">
<style type="text/css">
	.st0{fill:#00C0CC;}
</style>
<g>
	<g>
		<g>
			<path class="st0" d="M32.3,1H8.8C8.6,1,8.4,1,8.2,1C4.2,1.3,1,4.7,1,8.8v25.3c0,2.5,1.7,4.6,4.1,5.3v6.2c0,0.6,0.3,1.1,0.8,1.3
				C6.1,47,6.3,47,6.5,47c0.3,0,0.6-0.1,0.9-0.3l9.1-7.1h11.9c3,0,5.5-2.4,5.5-5.4V13h4.6c0.4,0,0.8-0.2,1-0.4
				c0.3-0.3,0.4-0.6,0.4-1v-3C40,4.4,36.5,1,32.3,1z M28.5,36.7H16.1c-0.3,0-0.6,0.1-0.9,0.3L8,42.6v-4.5c0-0.8-0.7-1.4-1.5-1.4
				c-1.4,0-2.6-1.2-2.6-2.6V8.8c0-2.6,2-4.8,4.5-4.9c0.1,0,0.2,0,0.3,0c0,0,0,0,0,0h0c1.2,0,2.4,0.5,3.3,1.3c1,0.9,1.5,2.1,1.5,3.5
				v3c0,0.8,0.7,1.4,1.5,1.4h16.1v21.1h0C31.1,35.5,29.9,36.7,28.5,36.7z M37.1,10.1L37.1,10.1H16.4V8.6c0-1.7-0.6-3.4-1.7-4.7h17.6
				c2.6,0,4.8,2.1,4.8,4.7L37.1,10.1L37.1,10.1z"/>
			<path class="st0" d="M26.5,17.4H9.4c-0.6,0-1.1,0.5-1.1,1.1c0,0.6,0.5,1.1,1.1,1.1h17.1c0.6,0,1.1-0.5,1.1-1.1
				C27.6,17.8,27.1,17.4,26.5,17.4z"/>
			<path class="st0" d="M26.5,23.4H9.4c-0.6,0-1.1,0.5-1.1,1.1s0.5,1.1,1.1,1.1h17.1c0.6,0,1.1-0.5,1.1-1.1
				C27.6,23.9,27.1,23.4,26.5,23.4z"/>
			<path class="st0" d="M26.5,29.4H9.4c-0.6,0-1.1,0.5-1.1,1.1s0.5,1.1,1.1,1.1h17.1c0.6,0,1.1-0.5,1.1-1.1
				C27.6,29.9,27.1,29.4,26.5,29.4z"/>
		</g>
	</g>
</g>
</svg>
